<?xml version="1.0" encoding="utf-8"?><svg xmlns="http://www.w3.org/2000/svg" xmlns:xlink="http://www.w3.org/1999/xlink" width="541.39" height="458.21" viewBox="0 0 541.39 458.21"><defs><style>.a,.c,.f{fill:none;}.a{stroke:#95a0b0;stroke-linecap:round;stroke-linejoin:round;stroke-width:2px;}.a,.ab,.ac,.ad,.ae,.af,.ag,.ah,.e,.t{opacity:0.3;}.b{opacity:0.05;}.d,.n,.o,.t{fill:#718095;}.f{stroke:#fff;stroke-miterlimit:10;stroke-width:0.5px;}.g{fill:#f6f7f8;}.h{opacity:0.7;}.i,.v{fill:#001b41;}.j{fill:url(#a);}.k{fill:#cef6fd;}.k,.l,.m,.q,.s{opacity:0.9;}.l,.w,.x{fill:#28cce8;}.m{fill:#0b9dcc;}.n{opacity:0.4;}.o,.r{opacity:0.8;}.p{fill:url(#b);}.q{fill:#7deae7;}.r{fill:url(#c);}.s{fill:url(#d);}.u{fill:#003d8f;}.v{opacity:0.6;}.w{opacity:0.1;}.y{fill:url(#e);}.z{fill:url(#f);}.aa{fill:url(#g);}.ab{fill:url(#h);}.ac{fill:url(#i);}.ad{fill:url(#j);}.ae{fill:url(#k);}.af{fill:url(#l);}.ag{fill:url(#m);}.ah{fill:url(#n);}.ai{fill:#263d5d;}.aj{fill:#ce9c76;}.ak{fill:#ad7957;}.al{fill:#d3a784;}.am{fill:url(#o);}.an{fill:url(#p);}.ao{fill:url(#q);}.ap{fill:#181a41;}</style><linearGradient id="a" x1="85.46" y1="629.9" x2="750.63" y2="-511.47" gradientTransform="translate(19.17 -7.54) rotate(-0.54)" gradientUnits="userSpaceOnUse"><stop offset="0" stop-color="#001b41"/><stop offset="0" stop-color="#031d43"/><stop offset="0.04" stop-color="#304665"/><stop offset="0.09" stop-color="#596b83"/><stop offset="0.14" stop-color="#7f8c9f"/><stop offset="0.19" stop-color="#9faab8"/><stop offset="0.25" stop-color="#bbc2cc"/><stop offset="0.32" stop-color="#d1d6dc"/><stop offset="0.39" stop-color="#e2e5e9"/><stop offset="0.49" stop-color="#edeff2"/><stop offset="0.62" stop-color="#f4f5f7"/><stop offset="1" stop-color="#f6f7f8"/></linearGradient><linearGradient id="b" x1="191.03" y1="689.18" x2="856.2" y2="-452.2" xlink:href="#a"/><linearGradient id="c" x1="350.58" y1="227.56" x2="421.91" y2="227.56" gradientUnits="userSpaceOnUse"><stop offset="0" stop-color="#009190"/><stop offset="1" stop-color="#00ceb0"/></linearGradient><linearGradient id="d" x1="419.79" y1="227.04" x2="490.42" y2="227.04" xlink:href="#c"/><linearGradient id="e" x1="-113.29" y1="-461.46" x2="-96.19" y2="-461.46" gradientTransform="matrix(0.87, -0.5, 0, 1.15, 140.42, 628.13)" gradientUnits="userSpaceOnUse"><stop offset="0" stop-color="#11c7e6"/><stop offset="1" stop-color="#3c9ddb"/></linearGradient><linearGradient id="f" x1="-93.44" y1="-461.46" x2="-76.33" y2="-461.46" xlink:href="#e"/><linearGradient id="g" x1="-93.44" y1="-472.05" x2="-76.33" y2="-472.05" xlink:href="#e"/><linearGradient id="h" x1="-73.43" y1="-461.46" x2="-56.32" y2="-461.46" xlink:href="#e"/><linearGradient id="i" x1="-73.43" y1="-472.05" x2="-56.32" y2="-472.05" xlink:href="#e"/><linearGradient id="j" x1="-73.43" y1="-482.87" x2="-56.32" y2="-482.87" xlink:href="#e"/><linearGradient id="k" x1="-52.96" y1="-461.46" x2="-35.86" y2="-461.46" xlink:href="#e"/><linearGradient id="l" x1="-52.96" y1="-472.05" x2="-35.86" y2="-472.05" xlink:href="#e"/><linearGradient id="m" x1="-52.96" y1="-482.87" x2="-35.86" y2="-482.87" xlink:href="#e"/><linearGradient id="n" x1="-52.96" y1="-493.69" x2="-35.86" y2="-493.69" xlink:href="#e"/><linearGradient id="o" x1="122.48" y1="185.65" x2="168.22" y2="185.65" gradientUnits="userSpaceOnUse"><stop offset="0" stop-color="#8c2de0"/><stop offset="0" stop-color="#ff9a9e"/><stop offset="1" stop-color="#fad0c4"/></linearGradient><linearGradient id="p" x1="129.19" y1="214.22" x2="181.22" y2="214.22" xlink:href="#o"/><linearGradient id="q" x1="126.03" y1="204.06" x2="145.96" y2="204.06" xlink:href="#o"/></defs><path class="a" d="M253.58,263.62l-65.16-38a13,13,0,0,0-13.25.09L82.42,281.48a5,5,0,0,1-7.57-4.28c0-12-.07-79.37-.07-72.75"/><g class="b"><path class="c" d="M227.09,383.76a8.17,8.17,0,0,0,4.07-.95l20.25-11.69a2.5,2.5,0,0,0,0-4.7,9.13,9.13,0,0,0-8.15,0L223,378.14a2.92,2.92,0,0,0-1.71,2.32,2.84,2.84,0,0,0,1.71,2.32A8.49,8.49,0,0,0,227.09,383.76Z"/><path class="c" d="M300.32,422.74l20.25-11.69c2.2-1.27,2.2-3.43,0-4.7a9,9,0,0,0-8.14,0l-20.3,11.72c-2.26,1.31-2.32,3.37,0,4.71A9.15,9.15,0,0,0,300.32,422.74Z"/><path class="d" d="M341.92,426.62a3.08,3.08,0,0,1,2-2.45,9.07,9.07,0,0,1,4.46-.79,6.79,6.79,0,0,1,4,1.49,2.15,2.15,0,0,1,.77,2.67c-.44.83,0,1.84,1.1,2.48a5.79,5.79,0,0,0,1.88.63,7.65,7.65,0,0,0,3.41-.25,3.12,3.12,0,0,0,2-1.56c1.1-2.28.39-4.73-1.92-6.76a16.38,16.38,0,0,0-8-3.4l-.88-.07a22.79,22.79,0,0,0-5.89-.16l-1.21.2a19,19,0,0,0-5.61,1.71,8.57,8.57,0,0,0-4.68,4.48l-.22.7c-.06.28-.39,12.17-.39,12.17a3.26,3.26,0,0,1-2.14,2.63,9.38,9.38,0,0,1-4.9.8,7.46,7.46,0,0,1-4.24-1.56,2.79,2.79,0,0,1-1-1.75v-.5l.11-.45c0-.06.05-.09.05-.16.44-.89,0-1.84-1.1-2.48a5.55,5.55,0,0,0-2-.63c-2.31-.32-4.56.41-5.33,1.75v.06c-1,2.38-.39,4.92,2,7a10.06,10.06,0,0,0,1.82,1.3,21,21,0,0,0,8.53,2.45,23.75,23.75,0,0,0,11.77-2c3.25-1.62,5.12-4,5.17-6.42Z"/><path class="d" d="M306.49,426.3l20.25-11.69c5.66-3.27,5.61-8.58,0-11.82s-14.86-3.24-20.47,0L286,414.52c-5.66,3.27-5.61,8.57,0,11.81S300.82,429.57,306.49,426.3ZM292.18,418l20.25-11.69a9,9,0,0,1,8.14,0c2.2,1.27,2.2,3.43,0,4.7l-20.3,11.73a9,9,0,0,1-8.14,0C289.92,421.44,289.87,419.38,292.18,418Z"/><path class="d" d="M285,380.59c.5-.93.06-1.94-1.1-2.61a3.33,3.33,0,0,0-.66-.32,6.78,6.78,0,0,0-5.45.35l-.71.42-18.27,30.18c-.49.92,0,1.93,1.05,2.57a4.81,4.81,0,0,0,.82.35,6.74,6.74,0,0,0,5.45-.35l.66-.38s17.77-29.39,18.27-30.18Z"/><path class="d" d="M300.54,391.23c1.77-1,1.71-2.57,0-3.56a6.7,6.7,0,0,0-6.16,0l-16.78,9.69-6.66,11Z"/><path class="d" d="M243.1,398c-1.76,1-1.71,2.58,0,3.56a6.67,6.67,0,0,0,6.16,0L266,391.83l6.66-11L243.1,398Z"/><path class="d" d="M227,388.81a21,21,0,0,0,10.29-2.44l20.25-11.69c2.75-1.59,4.24-3.66,4.24-5.94s-1.49-4.36-4.24-5.94a20.69,20.69,0,0,0-10.29-2.45A21,21,0,0,0,237,362.8l-20.3,11.72c-2.76,1.59-4.24,3.65-4.24,5.94s1.48,4.35,4.24,5.94A22.32,22.32,0,0,0,227,388.81Zm-4-10.7,20.25-11.69a9.13,9.13,0,0,1,8.15,0,2.5,2.5,0,0,1,0,4.7L231.1,382.84a9.19,9.19,0,0,1-8.14,0,2.48,2.48,0,0,1,0-4.73Z"/><path class="d" d="M231.6,351c.11-.07.11-.13.16-.16,1.1-1.08.77-2.42-.77-3.31a7.34,7.34,0,0,0-6.66,0l-.05,0-33.95,19.61c-1.93,1.11-1.93,2.82-.06,3.9a7.36,7.36,0,0,0,6.83,0l34-19.6a2.13,2.13,0,0,0,.49-.35Z"/><path class="d" d="M171.18,326.83c1.27-.73,1.21-1.71-.22-2.54a4.76,4.76,0,0,0-4.51-.13c-1.16.67-1.49,1.24-1.93,3.4C167.93,327.88,169.91,327.56,171.18,326.83Z"/></g><g class="e"><path class="d" d="M320.53,214.66a4.9,4.9,0,0,0-4.43,0L189.8,287a1.35,1.35,0,0,0,0,2.55l213.75,123a4.92,4.92,0,0,0,4.44,0L532.1,340.93a1.36,1.36,0,0,0,0-2.57Z"/><path class="f" d="M320.53,214.66a4.9,4.9,0,0,0-4.43,0L189.8,287a1.35,1.35,0,0,0,0,2.55l213.75,123a4.92,4.92,0,0,0,4.44,0L532.1,340.93a1.36,1.36,0,0,0,0-2.57Z"/></g><path class="g" d="M320.72,203.51a4.9,4.9,0,0,0-4.43,0L190,275.9a1.35,1.35,0,0,0,0,2.55l213.75,123a5,5,0,0,0,4.44,0L532.3,329.79a1.36,1.36,0,0,0,0-2.57Z"/><path class="f" d="M320.72,203.51a4.9,4.9,0,0,0-4.43,0L190,275.9a1.35,1.35,0,0,0,0,2.55l213.75,123a5,5,0,0,0,4.44,0L532.3,329.79a1.36,1.36,0,0,0,0-2.57Z"/><g class="h"><path class="i" d="M316.32,227.83a4.94,4.94,0,0,0-4.43,0l-66.56,39.27a1.35,1.35,0,0,0,0,2.56l67.27,38a4.92,4.92,0,0,0,4.44,0l66.56-39.26a1.35,1.35,0,0,0,0-2.56Z"/></g><polygon class="j" points="315.05 222.47 384.3 261.59 315.79 301.99 246.57 262.87 315.05 222.47"/><polygon class="k" points="312.94 129.13 382.19 168.25 313.68 208.65 244.46 169.53 312.94 129.13"/><polygon class="l" points="244.46 169.68 246.57 262.87 315.79 301.99 313.68 208.8 244.46 169.68"/><polygon class="m" points="382.19 168.62 384.3 261.59 315.79 301.99 313.68 209.02 382.19 168.62"/><path class="n" d="M291.32,317.09c-.27-.16-.24-.25-.17-.41s.19-.49-.44-.85a5.81,5.81,0,0,0-2-.56,2.36,2.36,0,0,1-1-.25c-.27-.15-.23-.24-.17-.41s.19-.49-.44-.85a5.58,5.58,0,0,0-2-.55,2.53,2.53,0,0,1-1-.25c-.27-.16-.24-.25-.17-.41s.19-.49-.44-.86a5.57,5.57,0,0,0-2-.55,2.58,2.58,0,0,1-1-.25c-.27-.16-.23-.25-.17-.41s.19-.5-.44-.86a5.58,5.58,0,0,0-2-.55,2.53,2.53,0,0,1-1-.25c-.27-.16-.24-.25-.17-.42s.18-.49-.45-.85a5.52,5.52,0,0,0-2-.55,2.52,2.52,0,0,1-1-.26c-.27-.16-.23-.25-.17-.41s.18-.49-.44-.86h0l0,0a5.62,5.62,0,0,0-2-.55,2.31,2.31,0,0,1-1-.25c-.27-.15-.24-.24-.17-.41s.19-.49-.44-.85a5.58,5.58,0,0,0-2-.55,3.14,3.14,0,0,1-.89-.21c-.2-.14-.18-.23-.13-.38s.19-.49-.43-.85l-.08,0-.06-.05a5.62,5.62,0,0,0-2-.55,3.14,3.14,0,0,1-.89-.21c-.19-.13-.17-.22-.11-.37s.19-.49-.44-.85l-.08,0-.07-.05a5.63,5.63,0,0,0-2-.55,2.8,2.8,0,0,1-.9-.22c-.18-.12-.16-.21-.11-.36s.2-.49-.43-.85l-.1-.05-.06,0a5.88,5.88,0,0,0-2-.56,2.59,2.59,0,0,1-.9-.21c-.18-.12-.16-.21-.1-.36s.19-.49-.44-.85l-.1-.05-.07-.05-.23-.09a7.66,7.66,0,0,0-1.59-.37,2.43,2.43,0,0,1-1-.25c-.27-.16-.24-.25-.18-.41s.19-.49-.44-.85a5.45,5.45,0,0,0-2-.56,2.36,2.36,0,0,1-1-.26c-.27-.15-.24-.24-.17-.41s.18-.49-.45-.85h0l0,0a5.62,5.62,0,0,0-2-.55,2.78,2.78,0,0,1-1-.25c-.26-.16-.23-.25-.16-.41s.19-.49-.44-.85a5.45,5.45,0,0,0-2-.56,2.58,2.58,0,0,1-1-.25c-.27-.16-.23-.25-.17-.41s.19-.49-.43-.85a5.45,5.45,0,0,0-2-.56,2.53,2.53,0,0,1-1-.25c-.27-.16-.24-.25-.17-.41s.19-.49-.44-.86a5.62,5.62,0,0,0-2-.55,2.53,2.53,0,0,1-1-.25c-.27-.16-.23-.25-.17-.41s.19-.49-.44-.86a5.62,5.62,0,0,0-2-.55,2.52,2.52,0,0,1-1-.26c-.27-.15-.24-.25-.18-.41s.19-.49-.44-.85a2.38,2.38,0,0,0-1.44-.13c-.51.09-.69.31-.39.48s.24.25.17.41-.18.49.44.85a5.45,5.45,0,0,0,2,.56,2.62,2.62,0,0,1,1,.26c.27.15.23.24.17.41s-.19.49.44.85a5.62,5.62,0,0,0,2,.55,2.52,2.52,0,0,1,1,.26c.27.15.23.24.17.41s-.19.49.44.85a5.52,5.52,0,0,0,2,.55,2.52,2.52,0,0,1,1,.26c.27.15.24.24.17.41s-.19.49.44.85a5.62,5.62,0,0,0,2,.55,2.57,2.57,0,0,1,1,.26c.26.15.23.24.17.41s-.19.49.43.85a5.57,5.57,0,0,0,2,.55,2.53,2.53,0,0,1,1,.25c.27.16.24.25.17.41s-.19.49.44.85l0,0,0,0a5.57,5.57,0,0,0,2,.55,2.57,2.57,0,0,1,1,.26c.27.15.23.25.17.41s-.19.49.44.85a5.87,5.87,0,0,0,2,.56,2.87,2.87,0,0,1,.88.2.26.26,0,0,1,.11.37c-.08.2-.19.49.44.85l.09,0s0,0,.07.05a5.59,5.59,0,0,0,2,.56,2.52,2.52,0,0,1,.88.21c.19.13.17.22.11.36s-.19.49.44.86l.09,0s0,0,.06,0a5.87,5.87,0,0,0,2,.56,2.71,2.71,0,0,1,.9.21c.18.13.16.22.1.36s-.19.49.44.86l.08,0,.06,0a5.62,5.62,0,0,0,2,.55,2.88,2.88,0,0,1,.9.22.25.25,0,0,1,.11.36c-.09.21-.19.49.43.86l.09,0,.05,0a1,1,0,0,0,.23.08,6.84,6.84,0,0,0,1.63.39,2.58,2.58,0,0,1,1,.25c.27.16.23.25.17.41s-.19.49.43.85a5.62,5.62,0,0,0,2,.55,2.46,2.46,0,0,1,1,.26c.27.15.24.24.18.41s-.19.49.43.85h0l0,0a5.45,5.45,0,0,0,2,.56,2.53,2.53,0,0,1,1,.25c.27.16.24.25.17.41s-.18.5.44.86a5.68,5.68,0,0,0,2,.55,2.72,2.72,0,0,1,1,.25c.27.16.24.25.17.42s-.19.49.44.85a5.62,5.62,0,0,0,2,.55,2.52,2.52,0,0,1,1,.26c.27.15.23.24.17.41s-.19.49.44.85a5.52,5.52,0,0,0,2,.55,2.4,2.4,0,0,1,1,.26c.27.15.23.24.17.4s-.19.49.43.86a5.62,5.62,0,0,0,2,.55,2.36,2.36,0,0,1,1,.25c.27.15.23.25.17.41s-.19.49.44.85a1.13,1.13,0,0,0,.38.13,2.9,2.9,0,0,0,1.06,0C291.44,317.47,291.61,317.26,291.32,317.09Z"/><path class="o" d="M265,295.79a2.8,2.8,0,0,1-.89-.22c-.19-.12-.17-.21-.11-.36s.19-.49-.43-.85l-.1-.05s0,0-.06,0a5.45,5.45,0,0,0-2-.56,2.84,2.84,0,0,1-.89-.21c-.18-.13-.16-.22-.1-.36s.19-.49-.44-.85l-.11-.05-.06-.05a1.23,1.23,0,0,0-.23-.09,7.74,7.74,0,0,0-1.6-.37,2.53,2.53,0,0,1-1-.25c-.27-.16-.23-.25-.17-.41s.19-.49-.44-.86a5.62,5.62,0,0,0-2-.55,2.52,2.52,0,0,1-1-.26c-.27-.15-.24-.25-.18-.41s.19-.49-.44-.85h0l0,0a5.52,5.52,0,0,0-2-.55,2.51,2.51,0,0,1-1-.26c-.27-.15-.23-.24-.17-.4s.19-.5-.44-.86a5.58,5.58,0,0,0-2-.55,2.53,2.53,0,0,1-1-.25c-.27-.16-.24-.25-.17-.41s.19-.49-.44-.86a5.58,5.58,0,0,0-2-.55,2.48,2.48,0,0,1-1-.25c-.27-.16-.24-.25-.18-.41s.19-.49-.43-.86a5.68,5.68,0,0,0-2-.55,2.53,2.53,0,0,1-1-.25c-.27-.16-.24-.25-.17-.42s.18-.49-.44-.85a5.62,5.62,0,0,0-2-.55,2.57,2.57,0,0,1-1-.26c-.27-.16-.23-.25-.17-.41s.18-.49-.44-.86a2.5,2.5,0,0,0-1.45-.12c-.51.09-.68.31-.39.48s.24.24.18.41-.19.49.44.85a5.45,5.45,0,0,0,2,.56,2.53,2.53,0,0,1,1,.25c.27.16.24.25.18.42s-.19.49.44.85a5.58,5.58,0,0,0,2,.55,2.47,2.47,0,0,1,1,.26c.27.15.24.24.17.41s-.19.49.44.85a5.62,5.62,0,0,0,2,.55,2.52,2.52,0,0,1,1,.26c.27.15.23.24.17.41s-.19.49.44.85a5.52,5.52,0,0,0,2,.55,2.35,2.35,0,0,1,1,.26c.27.15.23.24.17.4s-.19.49.44.86a5.52,5.52,0,0,0,2,.55,2.36,2.36,0,0,1,1,.25c.27.16.23.25.17.41s-.19.49.44.85l0,0h0a5.45,5.45,0,0,0,2,.56,2.62,2.62,0,0,1,1,.26c.27.15.23.24.17.41s-.19.49.44.85a5.63,5.63,0,0,0,2,.55,3.14,3.14,0,0,1,.89.21c.18.13.16.22.1.36s-.19.5.44.86l.09,0,.07,0a5.87,5.87,0,0,0,2,.56,2.87,2.87,0,0,1,.89.2c.19.13.16.22.11.37s-.19.49.44.85l.09.05.06,0a5.57,5.57,0,0,0,2,.55"/><g class="h"><path class="i" d="M423.52,286.12a5,5,0,0,0-4.44,0l-66.55,39.26a1.35,1.35,0,0,0,0,2.56l67.28,38a4.9,4.9,0,0,0,4.43,0l66.56-39.26a1.35,1.35,0,0,0,0-2.56Z"/></g><polygon class="p" points="421.17 280.76 490.42 319.87 421.91 360.28 352.69 321.15 421.17 280.76"/><polygon class="q" points="419.05 54.59 488.31 93.7 419.79 134.11 350.58 94.98 419.05 54.59"/><polygon class="r" points="350.58 94.84 352.69 321.15 421.91 360.28 419.8 133.97 350.58 94.84"/><polygon class="s" points="488.31 93.8 490.42 319.87 421.91 360.28 419.79 134.2 488.31 93.8"/><path class="n" d="M396.06,375.21c-.27-.16-.23-.25-.17-.41s.19-.49-.44-.85a5.52,5.52,0,0,0-2-.55,2.52,2.52,0,0,1-1-.26c-.27-.15-.23-.24-.17-.4s.19-.5-.43-.86a5.62,5.62,0,0,0-2-.55,2.53,2.53,0,0,1-1-.25c-.27-.16-.23-.25-.17-.41s.19-.49-.43-.86a5.62,5.62,0,0,0-2-.55,2.53,2.53,0,0,1-1-.25c-.27-.16-.24-.25-.17-.41s.18-.49-.44-.86a5.62,5.62,0,0,0-2-.55,2.53,2.53,0,0,1-1-.25c-.27-.16-.23-.25-.17-.42s.19-.49-.44-.85a5.62,5.62,0,0,0-2-.55,2.62,2.62,0,0,1-1-.26c-.27-.16-.23-.25-.17-.41s.19-.49-.44-.86h0l0,0a5.35,5.35,0,0,0-2-.56,2.36,2.36,0,0,1-1-.25c-.27-.15-.23-.24-.17-.41s.19-.49-.44-.85a5.58,5.58,0,0,0-2-.55,3.14,3.14,0,0,1-.89-.21c-.2-.14-.18-.23-.12-.38s.19-.49-.44-.85l-.08,0-.06-.05a5.57,5.57,0,0,0-2-.55,3.23,3.23,0,0,1-.89-.21c-.19-.13-.17-.22-.11-.37s.19-.49-.44-.85l-.08,0-.07-.05a5.58,5.58,0,0,0-2-.55,3.23,3.23,0,0,1-.9-.21c-.18-.13-.16-.22-.1-.37s.19-.49-.44-.85l-.1-.05-.06,0a5.76,5.76,0,0,0-2-.56,2.65,2.65,0,0,1-.9-.21c-.17-.12-.15-.21-.1-.36s.19-.49-.44-.85l-.1-.05-.06-.05-.24-.09a6.89,6.89,0,0,0-1.59-.36,2.52,2.52,0,0,1-1-.26c-.27-.16-.24-.25-.17-.41s.18-.49-.45-.85a5.35,5.35,0,0,0-2-.56,2.4,2.4,0,0,1-1-.26c-.27-.15-.23-.24-.17-.41s.18-.49-.44-.85h0l0,0a5.62,5.62,0,0,0-2-.55,2.48,2.48,0,0,1-1-.25c-.27-.16-.24-.25-.17-.41s.19-.49-.44-.85a5.4,5.4,0,0,0-2-.56,2.64,2.64,0,0,1-1-.25c-.26-.16-.23-.25-.16-.41s.19-.49-.44-.85a5.45,5.45,0,0,0-2-.56,2.58,2.58,0,0,1-1-.25c-.27-.16-.23-.25-.17-.41s.19-.49-.44-.85a5.45,5.45,0,0,0-2-.56,2.43,2.43,0,0,1-1-.25c-.27-.16-.24-.25-.18-.41s.19-.49-.44-.86a5.63,5.63,0,0,0-2-.55,2.52,2.52,0,0,1-1-.26c-.27-.15-.24-.24-.17-.41s.18-.49-.45-.85a2.45,2.45,0,0,0-1.44-.13c-.51.09-.68.31-.39.48s.24.25.18.41-.19.49.44.86a5.57,5.57,0,0,0,2,.55,2.57,2.57,0,0,1,1,.26c.27.15.24.24.17.41s-.19.49.44.85a5.62,5.62,0,0,0,2,.55,2.52,2.52,0,0,1,1,.26c.27.15.23.24.17.41s-.19.49.44.85a5.81,5.81,0,0,0,2,.56,2.41,2.41,0,0,1,1,.25c.27.15.23.24.17.41s-.19.49.43.85a5.62,5.62,0,0,0,2,.55,2.57,2.57,0,0,1,1,.26c.27.15.23.24.17.41s-.19.49.43.85a5.62,5.62,0,0,0,2,.55,2.48,2.48,0,0,1,1,.25c.27.16.24.25.18.41s-.19.49.43.86h0s0,0,0,0a5.62,5.62,0,0,0,2,.55,2.52,2.52,0,0,1,1,.26c.27.16.24.25.17.41s-.18.49.44.85a5.71,5.71,0,0,0,2,.56,2.73,2.73,0,0,1,.88.2.26.26,0,0,1,.11.37c-.08.2-.19.49.44.85l.09,0,.07.06a5.62,5.62,0,0,0,2,.55,2.64,2.64,0,0,1,.89.21c.18.13.16.22.1.36s-.18.49.44.86l.1,0,.06,0a5.55,5.55,0,0,0,2,.56,2.65,2.65,0,0,1,.9.21c.18.13.16.22.1.36s-.19.5.44.86l.09,0,.05,0a5.62,5.62,0,0,0,2,.55,2.8,2.8,0,0,1,.9.22c.19.13.17.22.11.36s-.19.49.44.86l.08,0,.06,0,.22.08a6.84,6.84,0,0,0,1.63.39,2.53,2.53,0,0,1,1,.25c.27.16.23.25.17.41s-.19.49.43.85a5.42,5.42,0,0,0,2,.55,2.52,2.52,0,0,1,1,.26c.27.15.23.24.17.41s-.19.49.44.85h0l0,0a5.45,5.45,0,0,0,2,.56,2.64,2.64,0,0,1,1,.25c.26.16.23.25.17.42s-.19.49.44.85a5.63,5.63,0,0,0,2,.55,2.42,2.42,0,0,1,1,.26c.27.15.24.24.18.41s-.19.49.43.85a5.62,5.62,0,0,0,2,.55,2.52,2.52,0,0,1,1,.26c.27.15.24.24.17.41s-.19.49.44.85a5.58,5.58,0,0,0,2,.55,2.35,2.35,0,0,1,1,.26c.27.15.24.24.17.4s-.19.49.44.86a5.58,5.58,0,0,0,2,.55,2.36,2.36,0,0,1,1,.25c.27.16.23.25.17.41s-.19.49.44.85a1.19,1.19,0,0,0,.39.13,2.9,2.9,0,0,0,1.06,0C396.18,375.59,396.36,375.38,396.06,375.21Z"/><path class="o" d="M369.75,353.91a2.8,2.8,0,0,1-.89-.22c-.18-.12-.16-.21-.11-.36s.19-.49-.43-.85l-.1-.05-.06,0a5.45,5.45,0,0,0-2-.56,2.58,2.58,0,0,1-.89-.21c-.18-.13-.16-.22-.1-.36s.19-.49-.44-.85l-.1-.05-.07-.05a1,1,0,0,0-.23-.09,7.6,7.6,0,0,0-1.6-.37,2.53,2.53,0,0,1-1-.25c-.27-.16-.23-.25-.17-.41s.19-.49-.44-.86a5.62,5.62,0,0,0-2-.55,2.35,2.35,0,0,1-1-.26c-.27-.15-.24-.24-.18-.41s.19-.49-.44-.85h0l0,0a5.52,5.52,0,0,0-2-.55,2.52,2.52,0,0,1-1-.26c-.27-.15-.23-.24-.17-.4s.2-.49-.43-.86a5.62,5.62,0,0,0-2-.55,2.53,2.53,0,0,1-1-.25c-.27-.16-.23-.25-.17-.41s.19-.49-.43-.86a5.62,5.62,0,0,0-2-.55,2.53,2.53,0,0,1-1-.25c-.27-.16-.24-.25-.17-.41s.19-.49-.44-.86a5.62,5.62,0,0,0-2-.55,2.53,2.53,0,0,1-1-.25c-.27-.16-.23-.25-.17-.41s.19-.5-.44-.86a5.62,5.62,0,0,0-2-.55,2.52,2.52,0,0,1-1-.26c-.27-.16-.24-.25-.18-.41s.19-.49-.44-.86a2.49,2.49,0,0,0-1.45-.12c-.5.09-.68.31-.38.48s.24.25.17.41-.19.49.44.85a5.45,5.45,0,0,0,2,.56,2.64,2.64,0,0,1,1,.25c.27.16.23.25.17.42s-.19.49.44.85a5.63,5.63,0,0,0,2,.55,2.42,2.42,0,0,1,1,.26c.27.15.24.24.18.41s-.19.49.43.85a5.62,5.62,0,0,0,2,.55,2.52,2.52,0,0,1,1,.26c.27.15.24.24.17.41s-.19.49.44.85a5.62,5.62,0,0,0,2,.55,2.35,2.35,0,0,1,1,.26c.27.15.24.24.17.4s-.19.49.44.86a5.58,5.58,0,0,0,2,.55,2.53,2.53,0,0,1,1,.25c.27.16.23.25.17.41s-.19.49.44.85l0,0,0,0a5.52,5.52,0,0,0,2,.55,2.57,2.57,0,0,1,1,.26c.27.15.23.24.17.41s-.19.49.44.85a5.62,5.62,0,0,0,2,.55,3.15,3.15,0,0,1,.88.21c.18.13.16.22.1.37s-.18.49.45.85l.09,0,.07,0a5.75,5.75,0,0,0,2,.56,2.58,2.58,0,0,1,.88.21c.19.12.17.21.11.36s-.19.49.44.86l.09,0,.06,0a5.62,5.62,0,0,0,2,.55"/><path class="t" d="M119.4,169.2l-109,62.92c-1.4.8-2.54-.06-2.54-1.92V94.36a6.07,6.07,0,0,1,2.54-4.84l109-62.92c1.39-.8,2.53.06,2.53,1.92V164.36A6.09,6.09,0,0,1,119.4,169.2Z"/><path class="u" d="M128.73,175.25l-109,62.92c-1.39.8-2.53-.06-2.53-1.92V100.41a6.09,6.09,0,0,1,2.53-4.84l109-62.92c1.4-.8,2.54.06,2.54,1.92V170.41A6.07,6.07,0,0,1,128.73,175.25Z"/><polygon class="v" points="124.6 123.5 26.1 180.37 26.1 102.59 124.6 45.72 124.6 123.5"/><polygon class="v" points="74.23 196.54 26.14 224.3 26.14 182.81 74.23 155.05 74.23 196.54"/><polygon class="v" points="124.61 167.45 76.53 195.21 76.53 153.72 124.61 125.96 124.61 167.45"/><ellipse class="w" cx="50.64" cy="189.54" rx="18" ry="10.39" transform="translate(-138.83 138.62) rotate(-60)"/><polygon class="x" points="44.63 193.73 44.63 192.1 57.35 184.75 57.35 186.38 44.63 193.73"/><ellipse class="w" cx="101.23" cy="160.54" rx="18" ry="10.39" transform="translate(-88.42 167.93) rotate(-60)"/><polygon class="x" points="107.58 155.95 101.92 159.22 101.92 152.68 100.51 153.5 100.51 160.03 94.85 163.3 94.85 164.93 100.51 161.66 100.51 168.19 101.92 167.38 101.92 160.85 107.58 157.58 107.58 155.95"/><polygon class="y" points="57.12 147.1 42.31 155.65 42.31 148.21 57.12 139.66 57.12 147.1"/><polygon class="z" points="74.32 137.17 59.51 145.73 59.51 138.28 74.32 129.73 74.32 137.17"/><polygon class="aa" points="74.32 124.95 59.51 133.5 59.51 126.06 74.32 117.5 74.32 124.95"/><polygon class="ab" points="91.65 127.17 76.83 135.72 76.83 128.28 91.65 119.73 91.65 127.17"/><polygon class="ac" points="91.65 114.94 76.83 123.5 76.83 116.05 91.65 107.5 91.65 114.94"/><polygon class="ad" points="91.65 102.45 76.83 111 76.83 103.56 91.65 95.01 91.65 102.45"/><polygon class="ae" points="109.37 116.94 94.56 125.49 94.56 118.05 109.37 109.49 109.37 116.94"/><polygon class="af" points="109.37 104.71 94.56 113.26 94.56 105.82 109.37 97.27 109.37 104.71"/><polygon class="ag" points="109.37 92.22 94.56 100.77 94.56 93.33 109.37 84.78 109.37 92.22"/><polygon class="ah" points="109.37 79.72 94.56 88.28 94.56 80.83 109.37 72.28 109.37 79.72"/><path class="d" d="M144.5,375.23V364.66c0-2-7.22-3.57-7.22-3.57l-11.85,12.13s3.31,2.68,5.25,2,6.73-5,8-5.68a3.44,3.44,0,0,1,2.76,0l-.27,5.79Z"/><path class="d" d="M173.87,376.16V365.91c0-2-8.32-3.23-8.32-3.23l-9.91,11.53s3.17,2.6,5,2,6.44-4.85,7.66-5.51a3.32,3.32,0,0,1,2.65,0l-.27,5.61Z"/><polygon class="i" points="153.56 255.68 153.56 303.08 157.2 367.15 178.04 364.55 177.52 249.42 153.56 255.68"/><path class="ai" d="M135,248.9l-8.84,54.38,3.2,61.26s15.22,3.66,17.47.52-.94-55.5-.94-55.5L169.35,254Z"/><path class="aj" d="M139.22,141.79s-1.47,24.11,9.05,21.93,15.09-12.45,15.09-12.45-1.78-15.15-6.87-14.91S139.94,139.43,139.22,141.79Z"/><path class="ak" d="M152,161.91l-.52,7,9.38.26s-2.35-8.85-1.56-12S152,161.91,152,161.91Z"/><path class="al" d="M171.72,184.36s-31.12,6.68-33.86,4.17c-9-8.28-21.91-23.42-24.41-24.55-2.75-1.25-10.29-5.82-3.21-7.64a9.6,9.6,0,0,1,8.67,2.74c.89,1,3,4,4.11,5,8.34,7.53,13,13.67,19,14.38,8.95,1.07,32.61-2.81,33-.73S171.72,184.36,171.72,184.36Z"/><path class="am" d="M127.36,167.75c-.45-.44-2.12-1.25-2.6-.84-1.54,1.33-3.14,6.27-1.74,7.23,1.83,1.26,11.76,12.9,12.79,13.93s6.73,3.54,7.07,3.77,21.69,12.66,21.69,12.66l3.65-5.47s-34.58-24.2-36.07-26.26C132.15,172.77,128.81,169.18,127.36,167.75Z"/><path class="an" d="M179.37,249.67c-20.73,19.46-50.18,9.19-50.18,9.19l3.95-10.63c6-9.46,5.39-51,3.66-54.78-5.23-11.39-1.91-17.83,0-21.08,4.7-8,28.19-5.22,31.89-4.12,7.32,2.18,9.89,15.78,7.06,25.69-3.4,11.87-2.22,22.66,1.24,29.24C180.59,230,183.12,246.15,179.37,249.67Z"/><path class="al" d="M136.17,185.21c-5-13.12,6.91-16.29,7.92-4.71.43,5,2.42,17.1-.06,25.92-1.08,3.84-4.5,17.93-9.6,23.21-2,2.05-8.11,9.92-9.42,13.08s-1,10.61-3.58,11.55-8.15-.14-7.59-3.49,3.15-7.58,6.49-10.71,10.08-15.4,11.57-18.95C137.07,208.82,138.7,191.81,136.17,185.21Z"/><path class="ao" d="M136.24,173.89s-4,6.36.34,16.22c0,0,1.14,15.69-4.5,29.22l-6.05,12s2.82,5.06,4.2,4a54.74,54.74,0,0,0,13.49-25.16s4.53-8.61.7-31.76C144.42,178.48,141.93,169.25,136.24,173.89Z"/><path class="ap" d="M135.67,140.55s.58,4,4.86,2.09c0,0,.18-.11,1.74.86s1.19-1,1.19-1a1.52,1.52,0,0,1,1.59,1.22c.39,1.36.78,5.25,2.72,5.45l1.36-2.92s4.48,1.17,2.73,4.67,2.49,10.65,2.49,10.65,1.1,1.8,2,1.39a1.59,1.59,0,0,1,1.68.14,3.45,3.45,0,0,0,3,.61c3.11-.58,1.17-1.55,1.17-1.55s2.45,3,4.79,2.4a4.29,4.29,0,0,0,3-2.21s3.5.2,2.14-5.45c0,0,4.24-3.25.39-6.22,0,0,4.33-1.31,3.16-5.4,0,0,4.89-8.88-2.06-11.55,0,0-.77-3.89-3.5-5.64a5,5,0,0,0-4.51-1.56s-6.48-7.68-11.77-2.9c0,0-3.41-3.13-7-.2L145.21,125s-3.7-1.75-5.65,1-2.45,2.24-3.5,2.34c-1.56.14-3.29,1.51-3.11,5.45.12,2.68-.34,4.29.39,5.45A7.88,7.88,0,0,0,135.67,140.55Z"/></svg>